<svg width="36" height="36" viewBox="0 0 36 36" fill="none" xmlns="http://www.w3.org/2000/svg">
<g clip-path="url(#clip0_1_140)">
<path d="M13.1823 0.777645C7.05778 2.60952 2.46443 7.31224 0.905969 13.3273C0.3318 15.5147 0.3318 20.0533 0.905969 22.268C2.79252 29.5408 9.8466 35.2551 16.9554 35.2825H18.5138V28.4471V21.6118H16.5999H14.686V19.5612V17.5106H16.5999H18.5138V14.9678C18.5412 10.1011 20.127 8.48792 24.939 8.48792H27.2631V10.4018V12.3157H25.4859C22.9978 12.3157 22.615 12.7258 22.615 15.46V17.5106H24.8297H27.0443L26.8803 18.2761C26.8256 18.6863 26.6616 19.5885 26.5795 20.2994L26.4155 21.6118H24.5016H22.615V28.1737C22.615 33.6146 22.6697 34.7356 22.9978 34.7356C23.2165 34.7356 24.5289 34.1615 25.9233 33.4506C29.2316 31.8101 31.8291 29.2674 33.4696 26.1231C34.9733 23.1976 35.4655 21.1743 35.4655 17.784C35.4655 14.421 34.9733 12.3704 33.5242 9.55423C31.501 5.67175 28.0286 2.63686 23.9001 1.16043C21.2753 0.203476 15.7523 0.0120888 13.1823 0.777645Z" fill="#F1F0EA"/>
</g>
<defs>
<clipPath id="clip0_1_140">
<rect width="34.997" height="34.997" fill="white" transform="translate(0.468506 0.2854)"/>
</clipPath>
</defs>
</svg>
