<svg width="36" height="36" viewBox="0 0 36 36" fill="none" xmlns="http://www.w3.org/2000/svg">
<g clip-path="url(#clip0_1_127)">
<path d="M13.6507 0.804985C7.55357 2.58217 2.93287 7.31223 1.37441 13.3273C0.800244 15.5146 0.800244 20.0533 1.37441 22.2406C2.96021 28.3924 8.04571 33.4506 14.1155 34.8723C16.3302 35.3918 20.5407 35.3918 22.7827 34.8723C27.3214 33.806 31.778 30.3063 33.938 26.1231C35.4418 23.1976 35.9339 21.1743 35.9339 17.784C35.9339 14.3937 35.4418 12.3704 33.938 9.44486C31.8054 5.31631 27.4854 1.89864 22.9194 0.722958C20.6227 0.121449 15.8107 0.176132 13.6507 0.804985ZM24.4779 8.26918C26.0363 8.78867 26.9386 9.60891 27.6221 11.058C28.2237 12.3704 28.2783 12.7532 28.2783 17.8113C28.2783 23.0882 28.2783 23.1702 27.5401 24.6467C26.9113 25.877 26.5285 26.2598 25.2981 26.8887C23.8217 27.6269 23.7397 27.6269 18.6268 27.6269C15.3185 27.6269 13.0218 27.5175 12.311 27.2988C10.8892 26.8613 9.3581 25.3302 8.92064 23.9085C8.48317 22.3773 8.48317 13.1906 8.92064 11.6595C9.33076 10.3198 10.8619 8.70664 12.1469 8.29652C13.4593 7.8864 23.2749 7.85906 24.4779 8.26918Z" fill="#F1F0EA"/>
<path d="M13.8968 9.52683C12.2289 9.7729 11.2173 10.3744 10.5885 11.5774C10.1783 12.3156 10.0963 13.2179 10.0963 17.7839C10.0963 22.6507 10.151 23.1975 10.6431 24.0724C11.7641 25.9317 12.4477 26.123 18.4354 26.123C24.4232 26.123 25.1067 25.9317 26.2277 24.0724C26.7199 23.1975 26.7746 22.6507 26.7746 17.7839C26.7746 12.9172 26.7199 12.3703 26.2277 11.4954C25.2161 9.7729 24.4232 9.55417 19.5838 9.4448C17.2324 9.39012 14.6623 9.4448 13.8968 9.52683ZM24.724 12.4797C24.724 13.2453 24.0404 13.628 23.3842 13.2179C22.7554 12.8078 22.6733 11.9876 23.2202 11.6048C23.9037 11.1126 24.724 11.6048 24.724 12.4797ZM20.4314 13.2453C23.6303 14.6123 24.3685 18.9869 21.8258 21.393C18.6542 24.3459 13.514 22.1039 13.514 17.7839C13.514 14.9951 15.5919 12.8898 18.3808 12.8625C19.0096 12.8625 19.9392 13.0265 20.4314 13.2453Z" fill="#F1F0EA"/>
<path d="M16.8223 14.7218C15.7833 15.2686 14.881 16.7177 14.881 17.784C14.881 18.8503 15.7833 20.2994 16.8223 20.8462C17.998 21.4751 18.8729 21.4751 20.0486 20.8462C21.0875 20.2994 21.9898 18.8503 21.9898 17.784C21.9898 17.4012 21.7711 16.663 21.4977 16.1709C20.9508 15.1319 19.5017 14.2296 18.4354 14.2296C18.0526 14.2296 17.3144 14.4483 16.8223 14.7218Z" fill="#F1F0EA"/>
</g>
<defs>
<clipPath id="clip0_1_127">
<rect width="34.997" height="34.997" fill="white" transform="translate(0.936951 0.2854)"/>
</clipPath>
</defs>
</svg>
