<svg width="35" height="36" viewBox="0 0 35 36" fill="none" xmlns="http://www.w3.org/2000/svg">
<g clip-path="url(#clip0_1_133)">
<path d="M12.7137 0.777641C6.58927 2.60952 1.99592 7.33957 0.437463 13.3273C-0.136706 15.5146 -0.136706 20.0533 0.437463 22.268C1.99592 28.2831 7.21813 33.4779 13.1512 34.8723C15.3932 35.3918 19.6038 35.3918 21.8184 34.8723C27.8882 33.4506 32.9737 28.3924 34.5595 22.2406C35.1337 20.0533 35.1337 15.5146 34.5595 13.3C33.958 11.0033 32.2355 7.77704 30.6223 5.94516C28.8725 4.00393 25.947 2.06269 23.4316 1.16042C20.8068 0.203472 15.2838 0.0120811 12.7137 0.777641ZM15.9947 11.222L18.6195 15.0498L21.9004 11.222C24.744 7.91374 25.3181 7.39426 26.0017 7.39426C26.4391 7.39426 26.7946 7.44894 26.7946 7.53096C26.7946 7.58565 25.1267 9.55423 23.1035 11.9056L19.4124 16.1708L22.0645 20.0533C23.5409 22.1859 25.3181 24.7834 26.029 25.8223C26.7672 26.8613 27.3414 27.8183 27.3414 27.955C27.3414 28.0643 26.0563 28.1737 24.4979 28.1737H21.627L18.9476 24.2092C17.4711 22.0492 16.1861 20.272 16.1041 20.2447C16.0221 20.2447 14.4089 22.0219 12.5497 24.2092C9.67885 27.5449 9.05 28.1737 8.39381 28.1737C7.95634 28.1737 7.65559 28.0643 7.71027 27.9003C7.76495 27.7636 9.48746 25.6856 11.5381 23.2796L15.2838 18.9323L11.456 13.382C9.37809 10.3198 7.65559 7.72235 7.65559 7.61299C7.65559 7.47628 8.94063 7.39426 10.4991 7.39426H13.3699L15.9947 11.222Z" fill="#F1F0EA"/>
<path d="M11.6748 11.4134C12.6864 12.8899 15.5026 16.9091 17.9359 20.3814L22.3379 26.6699L23.787 26.752L25.2361 26.834L24.5526 25.9317C24.1971 25.4396 21.3263 21.3657 18.2094 16.8817L12.5223 8.76133H11.1826H9.81555L11.6748 11.4134Z" fill="#F1F0EA"/>
</g>
<defs>
<clipPath id="clip0_1_133">
<rect width="34.997" height="34.997" fill="white" transform="translate(0 0.2854)"/>
</clipPath>
</defs>
</svg>
